<?xml version="1.0" encoding="UTF-8" standalone="no"?>
<!DOCTYPE svg PUBLIC "-//W3C//DTD SVG 1.1//EN"
 "http://www.w3.org/Graphics/SVG/1.1/DTD/svg11.dtd">
<!-- Generated by graphviz version 2.42.3 (20191010.1750)
 -->
<!-- Title: G Pages: 1 -->
<svg width="833pt" height="319pt"
 viewBox="0.00 0.00 833.24 319.00" xmlns="http://www.w3.org/2000/svg" xmlns:xlink="http://www.w3.org/1999/xlink">
<g id="graph0" class="graph" transform="scale(1 1) rotate(0) translate(4 315)">
<title>G</title>
<polygon fill="white" stroke="transparent" points="-4,4 -4,-315 829.24,-315 829.24,4 -4,4"/>
<!-- LEM -->
<g id="node1" class="node">
<title>LEM</title>
<ellipse fill="none" stroke="black" cx="232.28" cy="-112" rx="29.8" ry="18"/>
<text text-anchor="middle" x="232.28" y="-108.3" font-family="Times,serif" font-size="14.00">LEM</text>
</g>
<!-- marr01 -->
<g id="node11" class="node">
<title>marr01</title>
<polygon fill="lightgrey" stroke="black" points="408.02,-99.5 404.52,-96 408.02,-92.5 411.52,-96 408.02,-99.5"/>
</g>
<!-- LEM&#45;&gt;marr01 -->
<g id="edge1" class="edge">
<title>LEM&#45;&gt;marr01</title>
<path fill="none" stroke="black" d="M261.97,-109.36C300.4,-105.82 366.95,-99.69 394.51,-97.15"/>
<polygon fill="black" stroke="black" points="394.98,-100.62 404.61,-96.22 394.33,-93.65 394.98,-100.62"/>
</g>
<!-- marr02 -->
<g id="node12" class="node">
<title>marr02</title>
<polygon fill="lime" stroke="black" points="579.21,-45.5 575.71,-42 579.21,-38.5 582.71,-42 579.21,-45.5"/>
</g>
<!-- LEM&#45;&gt;marr02 -->
<g id="edge4" class="edge">
<title>LEM&#45;&gt;marr02</title>
<path fill="none" stroke="black" d="M258.45,-103.01C276.83,-96.7 302.46,-88.46 325.48,-83 416.39,-61.45 528.38,-47.65 565.56,-43.4"/>
<polygon fill="black" stroke="black" points="566.14,-46.86 575.69,-42.27 565.36,-39.9 566.14,-46.86"/>
</g>
<!-- Indef. Descr. -->
<g id="node2" class="node">
<title>Indef. Descr.</title>
<ellipse fill="none" stroke="black" cx="232.28" cy="-46" rx="57.39" ry="18"/>
<text text-anchor="middle" x="232.28" y="-42.3" font-family="Times,serif" font-size="14.00">Indef. Descr.</text>
</g>
<!-- Def. Descr. -->
<g id="node3" class="node">
<title>Def. Descr.</title>
<ellipse fill="none" stroke="black" cx="408.02" cy="-18" rx="51.99" ry="18"/>
<text text-anchor="middle" x="408.02" y="-14.3" font-family="Times,serif" font-size="14.00">Def. Descr.</text>
</g>
<!-- Indef. Descr.&#45;&gt;Def. Descr. -->
<g id="edge11" class="edge">
<title>Indef. Descr.&#45;&gt;Def. Descr.</title>
<path fill="none" stroke="black" d="M283.53,-37.9C304.47,-34.53 328.88,-30.59 350.45,-27.12"/>
<polygon fill="black" stroke="black" points="351.14,-30.55 360.45,-25.51 350.02,-23.64 351.14,-30.55"/>
</g>
<!-- Indef. Descr.&#45;&gt;marr01 -->
<g id="edge2" class="edge">
<title>Indef. Descr.&#45;&gt;marr01</title>
<path fill="none" stroke="black" d="M275.34,-58.1C314.66,-69.42 370.84,-85.59 395.11,-92.57"/>
<polygon fill="black" stroke="black" points="394.42,-96.01 404.99,-95.42 396.35,-89.29 394.42,-96.01"/>
</g>
<!-- Def. Descr.&#45;&gt;marr02 -->
<g id="edge5" class="edge">
<title>Def. Descr.&#45;&gt;marr02</title>
<path fill="none" stroke="black" d="M456.6,-24.75C493.86,-30.03 543.04,-37.01 565.75,-40.23"/>
<polygon fill="black" stroke="black" points="565.37,-43.71 575.76,-41.65 566.35,-36.78 565.37,-43.71"/>
</g>
<!-- CSB -->
<g id="node4" class="node">
<title>CSB</title>
<ellipse fill="none" stroke="black" cx="725.05" cy="-82" rx="27.1" ry="18"/>
<text text-anchor="middle" x="725.05" y="-78.3" font-family="Times,serif" font-size="14.00">CSB</text>
</g>
<!-- marr03 -->
<g id="node13" class="node">
<title>marr03</title>
<polygon fill="lightgrey" stroke="black" points="821.74,-169.5 818.24,-166 821.74,-162.5 825.24,-166 821.74,-169.5"/>
</g>
<!-- CSB&#45;&gt;marr03 -->
<g id="edge7" class="edge">
<title>CSB&#45;&gt;marr03</title>
<path fill="none" stroke="black" d="M747.65,-92.11C758.69,-97.9 771.94,-105.82 782.24,-115 795.77,-127.05 807.7,-144.47 814.57,-155.52"/>
<polygon fill="black" stroke="black" points="811.63,-157.42 819.75,-164.22 817.65,-153.84 811.63,-157.42"/>
</g>
<!-- Setoid&#45;CSB -->
<g id="node5" class="node">
<title>Setoid&#45;CSB</title>
<ellipse fill="none" stroke="black" cx="579.21" cy="-82" rx="52.79" ry="18"/>
<text text-anchor="middle" x="579.21" y="-78.3" font-family="Times,serif" font-size="14.00">Setoid&#45;CSB</text>
</g>
<!-- Setoid&#45;CSB&#45;&gt;CSB -->
<g id="edge10" class="edge">
<title>Setoid&#45;CSB&#45;&gt;CSB</title>
<path fill="none" stroke="black" d="M632.14,-82C650.36,-82 670.44,-82 687.17,-82"/>
<polygon fill="black" stroke="black" points="687.62,-85.5 697.62,-82 687.62,-78.5 687.62,-85.5"/>
</g>
<!-- marr04 -->
<g id="node14" class="node">
<title>marr04</title>
<polygon fill="lightgrey" stroke="black" points="725.05,-131.5 721.55,-128 725.05,-124.5 728.55,-128 725.05,-131.5"/>
</g>
<!-- Setoid&#45;CSB&#45;&gt;marr04 -->
<g id="edge12" class="edge">
<title>Setoid&#45;CSB&#45;&gt;marr04</title>
<path fill="none" stroke="black" d="M618.38,-94.21C649.66,-104.21 691.96,-117.74 712.24,-124.22"/>
<polygon fill="black" stroke="black" points="711.3,-127.6 721.89,-127.31 713.44,-120.93 711.3,-127.6"/>
</g>
<!-- Omniscience -->
<g id="node6" class="node">
<title>Omniscience</title>
<ellipse fill="none" stroke="black" cx="725.05" cy="-224" rx="57.39" ry="18"/>
<text text-anchor="middle" x="725.05" y="-220.3" font-family="Times,serif" font-size="14.00">Omniscience</text>
</g>
<!-- Omniscience&#45;&gt;marr03 -->
<g id="edge8" class="edge">
<title>Omniscience&#45;&gt;marr03</title>
<path fill="none" stroke="black" d="M752.17,-208C771.34,-196.26 796.34,-180.95 810.25,-172.43"/>
<polygon fill="black" stroke="black" points="812.25,-175.31 818.95,-167.1 808.59,-169.34 812.25,-175.31"/>
</g>
<!-- Setoid&#45;Omniscience -->
<g id="node7" class="node">
<title>Setoid&#45;Omniscience</title>
<ellipse fill="grey" stroke="black" cx="408.02" cy="-212" rx="82.59" ry="18"/>
<text text-anchor="middle" x="408.02" y="-208.3" font-family="Times,serif" font-size="14.00">Setoid&#45;Omniscience</text>
</g>
<!-- Setoid&#45;Omniscience&#45;&gt;marr04 -->
<g id="edge13" class="edge">
<title>Setoid&#45;Omniscience&#45;&gt;marr04</title>
<path fill="none" stroke="black" d="M461.04,-198.13C536.42,-178.03 671.45,-142.03 712.13,-131.18"/>
<polygon fill="black" stroke="black" points="713.07,-134.55 721.83,-128.59 711.26,-127.79 713.07,-134.55"/>
</g>
<!-- marr05 -->
<g id="node15" class="node">
<title>marr05</title>
<polygon fill="lime" stroke="black" points="579.21,-239.5 575.71,-236 579.21,-232.5 582.71,-236 579.21,-239.5"/>
</g>
<!-- Setoid&#45;Omniscience&#45;&gt;marr05 -->
<g id="edge16" class="edge">
<title>Setoid&#45;Omniscience&#45;&gt;marr05</title>
<path fill="none" stroke="black" d="M477.84,-221.76C510.82,-226.44 547.11,-231.59 565.71,-234.23"/>
<polygon fill="black" stroke="black" points="565.42,-237.72 575.82,-235.66 566.41,-230.79 565.42,-237.72"/>
</g>
<!-- Extensionality -->
<g id="node8" class="node">
<title>Extensionality</title>
<ellipse fill="none" stroke="black" cx="408.02" cy="-266" rx="61.99" ry="18"/>
<text text-anchor="middle" x="408.02" y="-262.3" font-family="Times,serif" font-size="14.00">Extensionality</text>
</g>
<!-- Extensionality&#45;&gt;marr05 -->
<g id="edge15" class="edge">
<title>Extensionality&#45;&gt;marr05</title>
<path fill="none" stroke="black" d="M461.16,-256.75C497.83,-250.25 544.08,-242.05 565.83,-238.19"/>
<polygon fill="black" stroke="black" points="566.67,-241.6 575.9,-236.41 565.45,-234.71 566.67,-241.6"/>
</g>
<!-- FunExt -->
<g id="node9" class="node">
<title>FunExt</title>
<ellipse fill="none" stroke="black" cx="69.54" cy="-293" rx="36.29" ry="18"/>
<text text-anchor="middle" x="69.54" y="-289.3" font-family="Times,serif" font-size="14.00">FunExt</text>
</g>
<!-- marr06 -->
<g id="node16" class="node">
<title>marr06</title>
<polygon fill="lime" stroke="black" points="232.28,-269.5 228.78,-266 232.28,-262.5 235.78,-266 232.28,-269.5"/>
</g>
<!-- FunExt&#45;&gt;marr06 -->
<g id="edge18" class="edge">
<title>FunExt&#45;&gt;marr06</title>
<path fill="none" stroke="black" d="M104.24,-287.34C139.97,-281.34 194.53,-272.17 218.85,-268.09"/>
<polygon fill="black" stroke="black" points="219.65,-271.5 228.93,-266.4 218.49,-264.6 219.65,-271.5"/>
</g>
<!-- ProofIrrelevance -->
<g id="node10" class="node">
<title>ProofIrrelevance</title>
<ellipse fill="none" stroke="black" cx="69.54" cy="-239" rx="69.59" ry="18"/>
<text text-anchor="middle" x="69.54" y="-235.3" font-family="Times,serif" font-size="14.00">ProofIrrelevance</text>
</g>
<!-- ProofIrrelevance&#45;&gt;marr06 -->
<g id="edge19" class="edge">
<title>ProofIrrelevance&#45;&gt;marr06</title>
<path fill="none" stroke="black" d="M128.57,-248.75C161.44,-254.27 199.72,-260.7 218.94,-263.93"/>
<polygon fill="black" stroke="black" points="218.61,-267.42 229.06,-265.63 219.77,-260.52 218.61,-267.42"/>
</g>
<!-- marr01&#45;&gt;Setoid&#45;CSB -->
<g id="edge3" class="edge">
<title>marr01&#45;&gt;Setoid&#45;CSB</title>
<path fill="none" stroke="black" d="M411.41,-95.8C423.05,-94.84 474.94,-90.55 517.79,-87"/>
<polygon fill="black" stroke="black" points="518.22,-90.48 527.9,-86.16 517.65,-83.5 518.22,-90.48"/>
</g>
<!-- marr02&#45;&gt;CSB -->
<g id="edge6" class="edge">
<title>marr02&#45;&gt;CSB</title>
<path fill="none" stroke="black" d="M582.58,-42.56C589.93,-44.32 612.94,-49.85 631.85,-55 651.23,-60.27 672.76,-66.56 690.15,-71.73"/>
<polygon fill="black" stroke="black" points="689.27,-75.13 699.86,-74.64 691.28,-68.42 689.27,-75.13"/>
</g>
<!-- marr03&#45;&gt;LEM -->
<g id="edge9" class="edge">
<title>marr03&#45;&gt;LEM</title>
<path fill="none" stroke="black" d="M817.96,-165.96C788.5,-165.56 531.12,-161.21 325.48,-132 307.08,-129.39 286.88,-125.16 270.09,-121.27"/>
<polygon fill="black" stroke="black" points="270.66,-117.81 260.13,-118.9 269.05,-124.62 270.66,-117.81"/>
</g>
<!-- marr04&#45;&gt;LEM -->
<g id="edge14" class="edge">
<title>marr04&#45;&gt;LEM</title>
<path fill="none" stroke="black" d="M721.37,-127.91C689.5,-126.87 382.12,-116.85 272.16,-113.27"/>
<polygon fill="black" stroke="black" points="272.26,-109.77 262.15,-112.94 272.03,-116.77 272.26,-109.77"/>
</g>
<!-- marr05&#45;&gt;Omniscience -->
<g id="edge17" class="edge">
<title>marr05&#45;&gt;Omniscience</title>
<path fill="none" stroke="black" d="M582.7,-235.79C592.14,-235 626.72,-232.12 659.32,-229.4"/>
<polygon fill="black" stroke="black" points="659.67,-232.88 669.34,-228.56 659.09,-225.91 659.67,-232.88"/>
</g>
<!-- marr06&#45;&gt;Extensionality -->
<g id="edge20" class="edge">
<title>marr06&#45;&gt;Extensionality</title>
<path fill="none" stroke="black" d="M236.01,-266C247.62,-266 294.18,-266 335.79,-266"/>
<polygon fill="black" stroke="black" points="335.96,-269.5 345.96,-266 335.96,-262.5 335.96,-269.5"/>
</g>
</g>
</svg>
